<mxfile host="65bd71144e">
    <diagram id="LeljWx8OOVvPL0qM37qs" name="Page-1">
        <mxGraphModel dx="1105" dy="797" grid="1" gridSize="10" guides="1" tooltips="1" connect="1" arrows="1" fold="1" page="1" pageScale="1" pageWidth="850" pageHeight="1100" math="0" shadow="0">
            <root>
                <mxCell id="0"/>
                <mxCell id="1" parent="0"/>
                <mxCell id="9" value="" style="edgeStyle=none;html=1;fontFamily=Courier New;fontSize=40;fontColor=#000000;" edge="1" parent="1" source="2" target="8">
                    <mxGeometry relative="1" as="geometry"/>
                </mxCell>
                <mxCell id="11" value="" style="edgeStyle=none;html=1;fontFamily=Courier New;fontSize=40;fontColor=#000000;" edge="1" parent="1" source="2" target="10">
                    <mxGeometry relative="1" as="geometry"/>
                </mxCell>
                <mxCell id="13" value="" style="edgeStyle=none;html=1;fontFamily=Courier New;fontSize=40;fontColor=#000000;" edge="1" parent="1" source="2" target="12">
                    <mxGeometry relative="1" as="geometry"/>
                </mxCell>
                <mxCell id="2" value="&lt;font color=&quot;#009900&quot; face=&quot;Courier New&quot; style=&quot;font-size: 80px; background-color: rgb(255, 255, 255);&quot;&gt;Object&lt;/font&gt;" style="text;html=1;align=center;verticalAlign=middle;resizable=0;points=[];autosize=1;strokeColor=#005700;fillColor=#008a00;fontColor=#ffffff;" vertex="1" parent="1">
                    <mxGeometry x="270" y="280" width="310" height="110" as="geometry"/>
                </mxCell>
                <mxCell id="8" value="Array" style="whiteSpace=wrap;html=1;labelBackgroundColor=none;fontFamily=Courier New;fontSize=40;fontColor=#ffffff;fillColor=#60a917;strokeColor=#2D7600;" vertex="1" parent="1">
                    <mxGeometry x="365" y="495" width="185" height="55" as="geometry"/>
                </mxCell>
                <mxCell id="10" value="Function" style="whiteSpace=wrap;html=1;labelBackgroundColor=none;fontFamily=Courier New;fontSize=40;fontColor=#ffffff;fillColor=#60a917;strokeColor=#2D7600;" vertex="1" parent="1">
                    <mxGeometry x="365" y="115" width="225" height="55" as="geometry"/>
                </mxCell>
                <mxCell id="12" value="String" style="whiteSpace=wrap;html=1;labelBackgroundColor=none;fontFamily=Courier New;fontSize=40;fontColor=#ffffff;fillColor=#60a917;strokeColor=#2D7600;" vertex="1" parent="1">
                    <mxGeometry x="50" y="305" width="170" height="65" as="geometry"/>
                </mxCell>
            </root>
        </mxGraphModel>
    </diagram>
</mxfile>